<svg width="54" height="54" viewBox="0 0 54 54" fill="none" xmlns="http://www.w3.org/2000/svg">
<path d="M43.263 42.147L47.241 38.169L51.2168 42.147C52.0036 42.9336 52.5395 43.9359 52.7567 45.0271C52.9738 46.1182 52.8626 47.2493 52.4369 48.2773C52.0112 49.3052 51.2902 50.1838 50.3651 50.802C49.4401 51.4201 48.3525 51.7501 47.2399 51.7501C46.1273 51.7501 45.0397 51.4201 44.1146 50.802C43.1896 50.1838 42.4686 49.3052 42.0429 48.2773C41.6172 47.2493 41.5059 46.1182 41.7231 45.0271C41.9403 43.9359 42.4762 42.9336 43.263 42.147ZM19.9755 2.42999L45.432 27.8842C45.6412 28.0932 45.8072 28.3414 45.9204 28.6145C46.0336 28.8876 46.0919 29.1804 46.0919 29.4761C46.0919 29.7718 46.0336 30.0646 45.9204 30.3377C45.8072 30.6109 45.6412 30.859 45.432 31.068L26.3407 50.1592C25.9188 50.5811 25.3466 50.818 24.75 50.818C24.1534 50.818 23.5812 50.5811 23.1593 50.1592L4.068 31.068C3.8588 30.859 3.69284 30.6109 3.57961 30.3377C3.46638 30.0646 3.4081 29.7718 3.4081 29.4761C3.4081 29.1804 3.46638 28.8876 3.57961 28.6145C3.69284 28.3414 3.8588 28.0932 4.068 27.8842L21.5685 10.3837L16.794 5.61149L19.98 2.42999H19.9755ZM24.75 13.5675L8.84025 29.475H40.6575L24.75 13.5675Z" fill="black"/>
</svg>
